<svg xmlns="http://www.w3.org/2000/svg">
    <symbol id="location" viewBox="0 0 485 485">
        <path d="M242.606,0C142.124,0,60.651,81.473,60.651,181.955s151.631,303.257,181.956,303.257
          c30.326,0,181.955-202.775,181.955-303.257S343.089,0,242.606,0z M242.606,303.257c-66.9,0-121.302-54.433-121.302-121.302
          S175.706,60.651,242.606,60.651c66.902,0,121.302,54.435,121.302,121.304S309.509,303.257,242.606,303.257z"/>
    </symbol>
    <symbol id="mail" viewBox="0 0 64 64">
        <path d="M63.125,9.977c-0.902-1.321-2.419-2.194-4.131-2.194H5.006c-1.676,0-3.158,0.842-4.067,2.117l31.16,25.982L63.125,9.977z"/>
        <path d="M0.006,14.328v36.889c0,2.75,2.25,5,5,5h53.988c2.75,0,5-2.25,5-5V14.461L32.099,41.09L0.006,14.328z"/>
    </symbol>
    <symbol id="telegram" viewBox="0 0 512 512">
        <path d="M470.4354553,45.4225006L16.8273029,221.2490387c-18.253809,8.1874695-24.4278889,24.5854034-4.4127407,33.4840851l116.3710175,
        37.1726685l281.3674316-174.789505c15.3625488-10.9733887,31.0910339-8.0470886,17.5573425,4.023468L186.0532227,341.074646l-7.5913849,
        93.0762329c7.0313721,14.3716125,19.9055786,14.4378967,28.1172485,7.2952881l66.8582916-63.5891418l114.5050659,86.1867065c26.5942688,
        15.8265076,41.0652466,5.6130371,46.7870789-23.3935242L509.835083,83.1804428C517.6329956,47.474514,504.3345032,31.7425518,470.4354553,45.4225006z"/>
    </symbol>
    <symbol id="github" viewBox="0 0 438 438">
        <path d="M409.132,114.573c-19.608-33.596-46.205-60.194-79.798-79.8C295.736,15.166,259.057,5.365,219.271,5.365
            c-39.781,0-76.472,9.804-110.063,29.408c-33.596,19.605-60.192,46.204-79.8,79.8C9.803,148.168,0,184.854,0,224.63
            c0,47.78,13.94,90.745,41.827,128.906c27.884,38.164,63.906,64.572,108.063,79.227c5.14,0.954,8.945,0.283,11.419-1.996
            c2.475-2.282,3.711-5.14,3.711-8.562c0-0.571-0.049-5.708-0.144-15.417c-0.098-9.709-0.144-18.179-0.144-25.406l-6.567,1.136
            c-4.187,0.767-9.469,1.092-15.846,1c-6.374-0.089-12.991-0.757-19.842-1.999c-6.854-1.231-13.229-4.086-19.13-8.559
            c-5.898-4.473-10.085-10.328-12.56-17.556l-2.855-6.57c-1.903-4.374-4.899-9.233-8.992-14.559
            c-4.093-5.331-8.232-8.945-12.419-10.848l-1.999-1.431c-1.332-0.951-2.568-2.098-3.711-3.429c-1.142-1.331-1.997-2.663-2.568-3.997
            c-0.572-1.335-0.098-2.43,1.427-3.289c1.525-0.859,4.281-1.276,8.28-1.276l5.708,0.853c3.807,0.763,8.516,3.042,14.133,6.851
            c5.614,3.806,10.229,8.754,13.846,14.842c4.38,7.806,9.657,13.754,15.846,17.847c6.184,4.093,12.419,6.136,18.699,6.136
            c6.28,0,11.704-0.476,16.274-1.423c4.565-0.952,8.848-2.383,12.847-4.285c1.713-12.758,6.377-22.559,13.988-29.41
            c-10.848-1.14-20.601-2.857-29.264-5.14c-8.658-2.286-17.605-5.996-26.835-11.14c-9.235-5.137-16.896-11.516-22.985-19.126
            c-6.09-7.614-11.088-17.61-14.987-29.979c-3.901-12.374-5.852-26.648-5.852-42.826c0-23.035,7.52-42.637,22.557-58.817
            c-7.044-17.318-6.379-36.732,1.997-58.24c5.52-1.715,13.706-0.428,24.554,3.853c10.85,4.283,18.794,7.952,23.84,10.994
            c5.046,3.041,9.089,5.618,12.135,7.708c17.705-4.947,35.976-7.421,54.818-7.421s37.117,2.474,54.823,7.421l10.849-6.849
            c7.419-4.57,16.18-8.758,26.262-12.565c10.088-3.805,17.802-4.853,23.134-3.138c8.562,21.509,9.325,40.922,2.279,58.24
            c15.036,16.18,22.559,35.787,22.559,58.817c0,16.178-1.958,30.497-5.853,42.966c-3.9,12.471-8.941,22.457-15.125,29.979
            c-6.191,7.521-13.901,13.85-23.131,18.986c-9.232,5.14-18.182,8.85-26.84,11.136c-8.662,2.286-18.415,4.004-29.263,5.146
            c9.894,8.562,14.842,22.077,14.842,40.539v60.237c0,3.422,1.19,6.279,3.572,8.562c2.379,2.279,6.136,2.95,11.276,1.995
            c44.163-14.653,80.185-41.062,108.068-79.226c27.88-38.161,41.825-81.126,41.825-128.906
            C438.536,184.851,428.728,148.168,409.132,114.573z"/>
    </symbol>
    <symbol id="discord" viewBox="0 0 24 24">
        <path d="M19.952,5.672c-1.904-1.531-4.916-1.79-5.044-1.801c-0.201-0.017-0.392,0.097-0.474,0.281 c-0.006,0.012-0.072,0.163-0.145,
        0.398c1.259,0.212,2.806,0.64,4.206,1.509c0.224,0.139,0.293,0.434,0.154,0.659 c-0.09,0.146-0.247,0.226-0.407,0.226c-0.086,
        0-0.173-0.023-0.252-0.072C15.584,5.38,12.578,5.305,12,5.305S8.415,5.38,6.011,6.872 c-0.225,0.14-0.519,0.07-0.659-0.154c-0.14-0.225-0.07-0.519,
        0.154-0.659c1.4-0.868,2.946-1.297,4.206-1.509 c-0.074-0.236-0.14-0.386-0.145-0.398C9.484,3.968,9.294,3.852,9.092,3.872c-0.127,0.01-3.139,
        0.269-5.069,1.822 C3.015,6.625,1,12.073,1,16.783c0,0.083,0.022,0.165,0.063,0.237c1.391,2.443,5.185,3.083,6.05,3.111c0.005,0,0.01,0,0.015,
        0 c0.153,0,0.297-0.073,0.387-0.197l0.875-1.202c-2.359-0.61-3.564-1.645-3.634-1.706c-0.198-0.175-0.217-0.477-0.042-0.675 c0.175-0.198,
        0.476-0.217,0.674-0.043c0.029,0.026,2.248,1.909,6.612,1.909c4.372,0,6.591-1.891,6.613-1.91 c0.198-0.172,0.5-0.154,0.674,0.045c0.174,0.198,0.155,0.499-0.042,0.673c-0.07,0.062-1.275,1.096-3.634,1.706l0.875,1.202 c0.09,0.124,0.234,0.197,0.387,0.197c0.005,0,0.01,0,0.015,0c0.865-0.027,4.659-0.667,6.05-3.111 C22.978,16.947,23,16.866,23,16.783C23,12.073,20.985,6.625,19.952,5.672z M8.891,14.87c-0.924,0-1.674-0.857-1.674-1.913 s0.749-1.913,1.674-1.913s1.674,0.857,1.674,1.913S9.816,14.87,8.891,14.87z M15.109,14.87c-0.924,0-1.674-0.857-1.674-1.913 s0.749-1.913,1.674-1.913c0.924,0,1.674,0.857,1.674,1.913S16.033,14.87,15.109,14.87z"/>
    </symbol>
    <symbol id="html" viewBox="0 0 30 30">
        <path d="M2.072,0l2.399,26.963L15.234,30l10.837-3.037L28.472,0H2.072z M23.259,8.795H10.622l0.281,3.393h12.074L22.04,22.389l-6.73,1.855v0.02h-0.075l-6.787-1.875l-0.413-5.213h3.281l0.244,2.625l3.675,0.994l3.692-0.994l0.414-4.275H7.866L6.984,5.514H23.56L23.259,8.795z"/>
    </symbol>
    <symbol id="css" viewBox="0 0 30 30">
      <path d="M25.428,3.333C25.238,3.121,24.967,3,24.683,3H5.317C5.033,3,4.762,3.121,4.572,3.333c-0.19,0.212-0.28,0.495-0.249,0.777 l2.202,19.823c0.044,0.403,0.329,0.74,0.719,0.851l7.48,2.137c0.09,0.026,0.183,0.039,0.275,0.039s0.185-0.013,0.275-0.039 l7.48-2.137c0.39-0.111,0.674-0.448,0.719-0.851L25.676,4.11C25.708,3.828,25.618,3.545,25.428,3.333z M20.516,13.074l-0.446,7.285 l-5.038,1.647l-5.038-1.647l-0.191-3.484h2.55l0.064,1.584l2.615,0.887l2.615-0.887l0.191-2.85h-5.612l-0.127-2.534h5.867 l0.191-2.534H9.356L9.165,8.006h11.67L20.516,13.074z"/>
    </symbol>
    <symbol id="sass" viewBox="0 0 32 32">
        <path d="M15.092 22.146c-0.015 0.030-0.030 0.054 0 0zM27.548 17.796c-1.006-0-1.998 0.23-2.9 0.675-0.295-0.595-0.6-1.115-0.65-1.505-0.060-0.455-0.125-0.725-0.055-1.265s0.385-1.305 0.38-1.36c-0.005-0.055-0.070-0.33-0.715-0.335s-1.2 0.125-1.265 0.295c-0.114 0.311-0.203 0.63-0.265 0.955-0.115 0.585-1.289 2.675-1.954 3.765-0.22-0.425-0.405-0.8-0.445-1.1-0.060-0.455-0.125-0.725-0.055-1.265s0.385-1.305 0.38-1.36c-0.005-0.055-0.070-0.33-0.714-0.335s-1.2 0.125-1.265 0.295c-0.065 0.17-0.135 0.57-0.265 0.955s-1.695 3.865-2.104 4.77c-0.21 0.46-0.39 0.83-0.52 1.080-0.020 0.040-0.035 0.065-0.045 0.085 0.015-0.025 0.025-0.050 0.025-0.040-0.11 0.215-0.175 0.335-0.175 0.335v0.005c-0.085 0.16-0.18 0.305-0.225 0.305-0.030 0-0.095-0.42 0.015-0.995 0.235-1.21 0.79-3.090 0.785-3.155-0.005-0.035 0.105-0.36-0.365-0.535-0.455-0.165-0.62 0.11-0.66 0.11s-0.070 0.1-0.070 0.1c0 0 0.505-2.12-0.97-2.12-0.92 0-2.2 1.010-2.829 1.925-0.395 0.215-1.25 0.68-2.15 1.175-0.345 0.19-0.7 0.385-1.035 0.57-0.025-0.025-0.045-0.050-0.070-0.075-1.79-1.91-5.094-3.26-4.954-5.825 0.050-0.935 0.375-3.39 6.354-6.37 4.9-2.44 8.817-1.77 9.492-0.28 0.97 2.125-2.095 6.080-7.183 6.65-1.94 0.215-2.959-0.535-3.214-0.815-0.265-0.295-0.305-0.31-0.405-0.255-0.165 0.090-0.060 0.35 0 0.505 0.15 0.395 0.775 1.095 1.84 1.445 0.935 0.305 3.209 0.475 5.958-0.59 3.089-1.19 5.494-4.505 4.788-7.28-0.718-2.82-5.394-3.745-9.815-2.175-2.635 0.935-5.484 2.405-7.533 4.32-2.435 2.28-2.824 4.265-2.664 5.095 0.57 2.945 4.629 4.865 6.253 6.285-0.080 0.045-0.155 0.085-0.225 0.125-0.815 0.405-3.909 2.025-4.684 3.735-0.875 1.94 0.145 3.33 0.814 3.52 2.090 0.58 4.229-0.465 5.379-2.18s1.010-3.955 0.48-4.975c-0.005-0.015-0.015-0.025-0.020-0.040 0.21-0.125 0.425-0.25 0.64-0.375 0.415-0.245 0.82-0.47 1.175-0.665-0.2 0.54-0.345 1.19-0.42 2.13-0.090 1.1 0.365 2.525 0.955 3.085 0.26 0.245 0.574 0.25 0.77 0.25 0.69 0 1-0.57 1.345-1.25 0.425-0.83 0.8-1.795 0.8-1.795s-0.47 2.61 0.815 2.61c0.47 0 0.94-0.605 1.15-0.915v0.005c0 0 0.010-0.020 0.035-0.060 0.050-0.075 0.075-0.12 0.075-0.12v-0.015c0.19-0.325 0.605-1.070 1.23-2.3 0.81-1.59 1.584-3.575 1.584-3.575 0.075 0.436 0.179 0.867 0.31 1.29 0.14 0.475 0.435 0.995 0.67 1.5-0.19 0.26-0.305 0.41-0.305 0.41 0 0.004 0.002 0.007 0.005 0.010-0.15 0.2-0.32 0.415-0.495 0.625-0.639 0.76-1.4 1.63-1.5 1.88-0.12 0.295-0.090 0.515 0.14 0.685 0.17 0.13 0.47 0.15 0.785 0.125 0.575-0.040 0.98-0.18 1.175-0.27 0.36-0.129 0.699-0.307 1.010-0.53 0.625-0.46 1.005-1.12 0.97-1.99-0.020-0.48-0.175-0.96-0.365-1.41 0.055-0.080 0.115-0.165 0.17-0.25 0.989-1.445 1.755-3.031 1.755-3.031 0.075 0.436 0.178 0.867 0.31 1.29 0.12 0.405 0.355 0.85 0.57 1.285-0.93 0.755-1.505 1.63-1.704 2.205-0.37 1.065-0.080 1.545 0.465 1.655 0.245 0.050 0.595-0.065 0.855-0.175 0.386-0.129 0.75-0.316 1.079-0.555 0.625-0.46 1.23-1.105 1.189-1.98-0.015-0.395-0.125-0.79-0.27-1.17 0.785-0.33 1.805-0.51 3.105-0.36 2.784 0.325 3.329 2.065 3.224 2.79s-0.69 1.13-0.885 1.25c-0.195 0.12-0.255 0.165-0.24 0.255 0.025 0.13 0.115 0.125 0.28 0.095 0.23-0.040 1.46-0.59 1.515-1.935 0.080-1.7-1.555-3.57-4.45-3.555zM6.089 25.031c-0.92 1.005-2.209 1.385-2.764 1.065-0.595-0.346-0.36-1.825 0.774-2.896 0.69-0.65 1.58-1.25 2.17-1.62 0.135-0.080 0.33-0.2 0.57-0.345 0.040-0.025 0.060-0.035 0.060-0.035 0.045-0.030 0.095-0.055 0.145-0.085 0.414 1.52 0.015 2.86-0.955 3.915zM12.807 20.461c-0.32 0.785-0.994 2.785-1.405 2.68-0.35-0.090-0.565-1.615-0.070-3.115 0.25-0.755 0.78-1.655 1.095-2.005 0.505-0.565 1.060-0.745 1.19-0.52 0.175 0.295-0.61 2.47-0.81 2.96zM18.357 23.111c-0.135 0.070-0.26 0.115-0.32 0.080-0.045-0.025 0.055-0.12 0.055-0.12s0.695-0.745 0.97-1.085c0.16-0.2 0.345-0.435 0.545-0.695 0 0.025 0.005 0.050 0.005 0.080-0.006 0.895-0.866 1.5-1.256 1.74zM22.637 22.136c-0.1-0.070-0.085-0.305 0.25-1.035 0.13-0.285 0.43-0.765 0.95-1.225 0.059 0.174 0.091 0.356 0.095 0.54-0.005 1.125-0.81 1.545-1.295 1.72z"/>
    </symbol>
    <symbol id="bem" viewBox="0 0 512 512">
        <path d="M302.9330139,407.8850098H512v59.3150024H302.9330139V407.8850098z M234.9140167,168.533493l-115.4470139-0.0005035V44.8000031H0v366.9329834l234.9140015-0.0000305c38.7630005,0,70.1870117-33.2109985,70.1870117-71.973999V237.1840057C305.1010132,198.4170074,273.677002,168.533493,234.9140167,168.533493z"/>
    </symbol>
    <symbol id="javascript" stroke-width="2" viewBox="0 0 50 50">
        <path d="M45.274,2.325C45.084,2.118,44.817,2,44.536,2H5.464C5.183,2,4.916,2.118,4.726,2.325S4.443,2.81,4.468,3.089l3.52,39.427 c0.037,0.412,0.324,0.759,0.722,0.873l16.01,4.573C24.809,47.987,24.902,48,24.994,48s0.185-0.013,0.274-0.038l16.024-4.573 c0.398-0.114,0.685-0.461,0.722-0.873l3.518-39.427C45.557,2.81,45.463,2.532,45.274,2.325z M12,29.004l7,1.942V11h4v26l-11-3.051 V29.004z M38.054,22L37,34.25L27,37v-4.601l6.75-1.855l0.25-3.75L27,28V11h12l-0.345,4H31v8L38.054,22z"/>
    </symbol>
    <symbol id="galp" viewBox="0 0 32 32">
        <path d="M 22.154297 1 C 22.113531 1.0015781 22.081797 1.0129531 22.060547 1.0332031 L 18.345703 5.4453125 L 17.587891 8.0507812 C 17.072891 8.0337813 16.541094 8.0273438 15.996094 8.0273438 C 12.135094 8.0273437 9 8.4363594 9 8.9433594 C 9 10.153359 22.990234 10.153359 22.990234 8.9433594 C 22.990234 8.5683594 21.315391 8.2515625 18.900391 8.1015625 L 19.5 5.9570312 L 22.974609 1.7773438 L 22.980469 1.7714844 C 23.058469 1.6904844 22.906203 1.447375 22.658203 1.234375 C 22.472203 1.073875 22.276594 0.99526563 22.154297 1 z M 17.302734 9.0761719 L 17.289062 9.1171875 C 17.283062 9.1221875 17.283203 9.1287656 17.283203 9.1347656 C 17.283203 9.2097656 17.586078 9.2714844 17.955078 9.2714844 C 18.324078 9.2714844 18.628906 9.2097656 18.628906 9.1347656 L 18.640625 9.0878906 C 18.737625 9.1228906 18.791016 9.1629844 18.791016 9.2089844 C 18.791016 9.3299844 18.416219 9.4288281 17.949219 9.4238281 C 17.495219 9.4238281 17.119141 9.3319375 17.119141 9.2109375 C 17.119141 9.1589375 17.193734 9.1111719 17.302734 9.0761719 z M 22.912109 9.4199219 C 21.061109 10.406922 10.949797 10.413594 9.0917969 9.4335938 L 9.9140625 16.666016 C 10.271062 15.513016 11.173938 13.956375 12.335938 13.484375 C 12.716938 13.328375 13.103797 13.329109 13.466797 13.537109 C 13.781797 13.710109 14.048125 14.072797 14.078125 14.216797 C 14.151125 14.591797 13.957641 14.740234 13.806641 14.740234 C 13.624641 14.740234 13.485531 14.476312 13.394531 14.320312 C 13.146531 13.899313 12.771094 13.881203 12.371094 14.158203 C 11.953094 14.446203 11.589938 14.930563 11.335938 15.351562 C 11.026938 15.858562 10.766375 16.417563 10.609375 16.976562 C 10.518375 17.299563 10.435219 17.817047 10.574219 18.123047 C 10.635219 18.250047 10.725094 18.330078 10.871094 18.330078 C 11.174094 18.330078 11.614172 17.950047 11.826172 17.748047 C 12.098172 17.489047 12.449031 17.085172 12.582031 16.826172 L 12.898438 15.933594 C 13.055438 15.541594 13.496094 15.610594 13.496094 15.933594 C 13.496094 16.521594 13.273578 16.717594 12.892578 17.933594 C 12.541578 19.057594 12.431641 19.421875 12.431641 19.421875 C 12.389641 19.582875 12.225781 19.853516 12.050781 19.853516 C 11.977781 19.853516 11.924531 19.829203 11.894531 19.783203 C 11.833531 19.702203 11.839703 19.479875 11.845703 19.421875 C 11.857703 19.237875 12.226109 18.14175 12.287109 17.96875 C 12.166109 18.09575 12.039391 18.223609 11.900391 18.349609 C 11.573391 18.643609 11.047609 19.029297 10.599609 19.029297 C 10.393609 19.029297 10.261766 18.976625 10.134766 18.890625 L 10.59375 23.478516 C 10.71475 23.766516 12.966641 24.464844 15.931641 24.464844 C 18.902641 24.464844 21.152578 23.761516 21.267578 23.478516 L 21.927734 18.027344 C 21.582734 18.327344 21.184188 18.696859 20.742188 18.880859 C 20.415187 19.013859 19.689453 19.098781 19.689453 18.550781 C 19.689453 18.250781 20.240547 17.6985 20.560547 17.3125 C 20.645547 17.2145 20.84375 16.972703 20.84375 16.845703 C 20.84375 16.678703 20.481719 16.717281 20.136719 16.988281 C 19.942719 17.144281 19.760375 17.352828 19.609375 17.548828 C 19.349375 17.894828 19.210703 18.193406 19.095703 18.441406 C 18.720703 19.259406 18.847922 18.936984 18.544922 19.708984 C 18.241922 20.475984 18.291469 20.388625 18.230469 20.515625 C 18.176469 20.625625 18.097281 20.718391 17.988281 20.775391 C 17.873281 20.833391 17.716141 20.826812 17.619141 20.757812 C 17.565141 20.722812 17.539062 20.647922 17.539062 20.544922 C 17.539062 20.492922 17.546594 20.440672 17.558594 20.388672 C 17.649594 20.036672 18.030797 19.346109 18.466797 18.412109 C 18.563797 18.199109 18.526672 18.262297 18.513672 18.279297 C 18.138672 18.625297 17.853578 18.792766 17.642578 18.884766 C 17.291578 19.034766 16.855625 19.034438 16.765625 18.648438 C 16.759625 18.625438 16.759906 18.601125 16.753906 18.578125 C 16.039906 19.108125 15.283922 19.252328 15.544922 18.111328 C 15.266922 18.584328 14.7815 18.970703 14.1875 18.970703 C 13.9395 18.970703 13.757969 18.890734 13.667969 18.677734 C 13.528969 18.360734 13.746312 17.817688 13.945312 17.304688 C 14.048312 17.045687 14.188953 16.734094 14.376953 16.371094 C 14.473953 16.175094 14.629937 16.059328 14.835938 16.111328 C 14.871937 16.123328 14.903594 16.135344 14.933594 16.152344 C 15.090594 16.256344 15.030172 16.410406 14.951172 16.566406 C 14.721172 16.998406 14.521672 17.315625 14.388672 17.765625 C 14.334672 17.955625 14.266516 18.285156 14.478516 18.285156 C 14.623516 18.285156 14.762484 18.238484 14.896484 18.146484 C 15.174484 17.950484 15.398359 17.657141 15.568359 17.369141 C 15.689359 17.162141 15.835203 16.891156 15.908203 16.660156 C 15.938203 16.562156 15.975578 16.469813 16.017578 16.382812 C 16.084578 16.238813 16.174031 16.089844 16.332031 16.089844 C 16.411031 16.089844 16.476391 16.118781 16.525391 16.175781 C 16.628391 16.302781 16.605781 16.433266 16.550781 16.572266 C 16.429781 16.895266 16.266813 17.184156 16.132812 17.535156 C 16.053812 17.737156 15.96875 17.995984 15.96875 18.208984 C 15.96875 18.404984 16.192859 18.358344 16.380859 18.277344 C 16.525859 18.214344 16.670969 18.117531 16.792969 18.019531 C 16.865969 17.737531 16.846625 17.799891 18.390625 14.087891 C 18.469625 13.897891 18.614766 13.816406 18.759766 13.816406 C 18.832766 13.816406 18.892125 13.840859 18.953125 13.880859 C 19.056125 13.955859 19.057625 14.115328 19.015625 14.236328 C 18.973625 14.346328 18.978187 14.311797 18.742188 14.841797 C 18.427187 15.538797 18.222359 16.041641 17.943359 16.681641 C 17.828359 16.946641 17.477969 17.770797 17.417969 17.966797 C 17.381969 18.093797 17.338516 18.300781 17.478516 18.300781 C 17.805516 18.300781 18.646953 17.545312 18.876953 17.320312 C 18.888953 17.303313 18.907641 17.297156 18.931641 17.285156 C 18.967641 17.175156 19.003203 17.07275 19.033203 16.96875 C 19.118203 16.74975 19.197469 16.494406 19.355469 16.316406 C 19.403469 16.258406 19.457578 16.224609 19.517578 16.224609 C 19.686578 16.224609 19.771484 16.293078 19.771484 16.455078 C 19.771484 16.518078 19.730078 16.7495 19.705078 16.8125 C 19.790078 16.7265 19.879563 16.640688 19.976562 16.554688 C 20.884563 15.753687 21.53125 16.162406 21.53125 16.566406 C 21.53125 16.992406 20.993266 17.585062 20.697266 17.914062 C 20.600266 18.024062 20.400531 18.225203 20.394531 18.283203 C 20.394531 18.358203 20.448344 18.388672 20.527344 18.388672 C 20.648344 18.388672 20.914719 18.186188 21.011719 18.117188 C 21.314719 17.892187 21.724625 17.546688 22.015625 17.304688 L 22.912109 9.4199219 z M 10.929688 24.03125 L 11.832031 25.496094 L 12.183594 30.072266 C 12.183594 30.585266 13.895953 31 16.001953 31 C 18.107953 31 19.820312 30.585266 19.820312 30.072266 L 20.099609 25.449219 L 20.951172 24.03125 C 18.554172 24.99425 13.423687 25.02825 10.929688 24.03125 z"/>
    </symbol>
    <symbol id="figma" viewBox="0 0 30 30">
        <path d="M10 29L10 29c-2.209 0-4-1.791-4-4l0 0c0-2.209 1.791-4 4-4h2.857C13.488 21 14 21.512 14 22.143V25C14 27.209 12.209 29 10 29zM20 9h-2.857C16.512 9 16 8.488 16 7.857V2.143C16 1.512 16.512 1 17.143 1H20c2.209 0 4 1.791 4 4l0 0C24 7.209 22.209 9 20 9zM10 1h2.857C13.488 1 14 1.512 14 2.143v5.714C14 8.488 13.488 9 12.857 9H10C7.791 9 6 7.209 6 5l0 0C6 2.791 7.791 1 10 1zM10 11h2.857C13.488 11 14 11.512 14 12.143v5.714C14 18.488 13.488 19 12.857 19H10c-2.209 0-4-1.791-4-4l0 0C6 12.791 7.791 11 10 11zM20 11A4 4 0 1020 19 4 4 0 1020 11z"/>
    </symbol>
    <symbol id="photoshop" viewBox="0 0 48 48">
        <path d="M 13.5 6 C 9.3754991 6 6 9.3754991 6 13.5 L 6 34.5 C 6 38.624501 9.3754991 42 13.5 42 L 34.5 42 C 38.624501 42 42 38.624501 42 34.5 L 42 13.5 C 42 9.3754991 38.624501 6 34.5 6 L 13.5 6 z M 16.5 15 L 19 15 C 22.03 15 24.5 17.47 24.5 20.5 C 24.5 23.53 22.03 26 19 26 L 18 26 L 18 31.5 C 18 32.33 17.33 33 16.5 33 C 15.67 33 15 32.33 15 31.5 L 15 16.5 C 15 15.67 15.67 15 16.5 15 z M 18 18 L 18 23 L 19 23 C 20.38 23 21.5 21.88 21.5 20.5 C 21.5 19.12 20.38 18 19 18 L 18 18 z M 29.050781 21 L 30.400391 21 C 31.840391 21 33.159922 21.91 33.669922 23.25 C 33.969922 24.03 33.580781 24.889453 32.800781 25.189453 C 32.030781 25.489453 31.159141 25.090313 30.869141 24.320312 C 30.809141 24.160312 30.640391 24 30.400391 24 L 29.050781 24 C 28.640781 24 28.300781 24.34 28.300781 24.75 C 28.300781 25.16 28.640781 25.5 29.050781 25.5 L 30.25 25.5 C 32.32 25.5 34 27.18 34 29.25 C 34 31.32 32.32 33 30.25 33 L 28.099609 33 C 27.249609 33 26.429063 32.690859 25.789062 32.130859 C 25.659063 32.010859 25.539687 31.889766 25.429688 31.759766 C 24.889688 31.119766 24.979375 30.180625 25.609375 29.640625 C 26.249375 29.110625 27.190469 29.200078 27.730469 29.830078 C 27.830469 29.930078 27.939609 30 28.099609 30 L 30.25 30 C 30.66 30 31 29.66 31 29.25 C 31 28.84 30.66 28.5 30.25 28.5 L 29.050781 28.5 C 26.980781 28.5 25.300781 26.82 25.300781 24.75 C 25.300781 22.68 26.980781 21 29.050781 21 z"/>
    </symbol>
    <symbol id="html-academy" viewBox="0 0 32 32">
        <path d="M16 0l-12.635 1.323v23.161l12.635 7.516 12.635-7.516v-23.161l-12.505-1.307zM26.979 23.542l-10.979 6.536-10.979-6.536v-9.49l10.932 6.505 0.016 1.182-7.5-4.469-0.010 1.151 7.531 4.526 0.021 1.208-7.531-4.479-0.010 1.146 7.531 4.526 7.604-4.552v-1.151l-0.010 0.005v-3.74l3.385-2.021zM26.974 12.661l-4.391 2.589-6.615-3.938-0.010 1.146 5.651 3.359-0.047 0.031-0.125 0.073-0.802 0.474-4.667-2.776-0.010 1.141 3.682 2.193-0.87 0.583-0.021 0.010-2.781-1.641-0.010 1.146 1.823 1.078-1.859 1.115-10.88-6.469 10.896-6.547zM26.979 11.51l-11.042-6.51-10.917 6.5v-8.688l10.979-1.151 10.984 1.151v8.693z"/>
    </symbol>
    <symbol id="rs-school" viewBox="0 0 80 29">
        <path d="M41.2862 9.10523L45.0447 8.86509C45.1304 9.4725 45.2876 9.92452 45.5449 10.2494C45.9593 10.7579 46.5309 11.0122 47.2883 11.0122C47.8457 11.0122 48.2887 10.8851 48.5888 10.6167C48.8746 10.4048 49.0461 10.0658 49.0461 9.71263C49.0461 9.37362 48.8889 9.04872 48.6174 8.83684C48.3316 8.58258 47.6599 8.32832 46.6024 8.1023C44.8732 7.72091 43.6299 7.21239 42.9011 6.56261C42.1722 5.9552 41.7578 5.06528 41.7864 4.11886C41.7864 3.46908 41.9864 2.8193 42.358 2.28253C42.7867 1.67512 43.3726 1.19485 44.0729 0.926463C44.8303 0.601572 45.8878 0.432064 47.2169 0.432064C48.8461 0.432064 50.0894 0.728703 50.9468 1.33611C51.8043 1.92939 52.3187 2.88993 52.4759 4.20362L48.7603 4.4155C48.6603 3.85048 48.4602 3.44083 48.1315 3.17244C47.8028 2.90406 47.3741 2.77693 46.8168 2.77693C46.3594 2.77693 46.0165 2.87581 45.7878 3.05944C45.5734 3.22895 45.4305 3.48321 45.4448 3.76572C45.4448 3.97761 45.5592 4.17537 45.7306 4.3025C45.9164 4.47201 46.3594 4.62739 47.0597 4.76865C48.7889 5.13591 50.0179 5.50318 50.7753 5.88457C51.5327 6.26597 52.0758 6.73211 52.4045 7.28301C52.7475 7.84804 52.919 8.49782 52.9047 9.16173C52.9047 9.95277 52.676 10.7438 52.2187 11.4077C51.7471 12.0999 51.0897 12.6366 50.318 12.9615C49.5034 13.3147 48.4745 13.4983 47.2455 13.4983C45.0733 13.4983 43.5727 13.0887 42.7296 12.2553C41.8864 11.4218 41.3862 10.3765 41.2862 9.10523ZM1.40033 13.2864V0.658075H7.98842C9.20315 0.658075 10.1463 0.756955 10.7894 0.96884C11.4182 1.1666 11.9756 1.57624 12.3471 2.12714C12.7616 2.73455 12.9616 3.44083 12.9474 4.17537C12.9902 5.41843 12.3471 6.60498 11.2467 7.22651C10.818 7.46665 10.3464 7.63616 9.86053 7.72091C10.2178 7.81979 10.5751 7.9893 10.8895 8.18706C11.1324 8.38482 11.3325 8.61083 11.5183 8.85096C11.7326 9.0911 11.9184 9.35949 12.0756 9.642L13.9906 13.3006H9.50326L7.38821 9.41599C7.11668 8.92159 6.88802 8.5967 6.67366 8.44132C6.38784 8.24356 6.04486 8.14468 5.70188 8.14468H5.3589V13.2723H1.40033V13.2864ZM5.3589 5.77157H7.03093C7.38821 5.74332 7.73119 5.68681 8.07417 5.60206C8.3314 5.55968 8.56006 5.41843 8.71726 5.20654C9.10311 4.69802 9.04595 3.97761 8.57435 3.53971C8.31711 3.32783 7.81693 3.21482 7.10239 3.21482H5.3589V5.77157ZM0.5 24.1067L4.2585 23.8666C4.34425 24.474 4.50145 24.926 4.75868 25.2509C5.15883 25.7594 5.74475 26.0278 6.50217 26.0278C7.05951 26.0278 7.50253 25.9007 7.80264 25.6323C8.08846 25.4063 8.25995 25.0814 8.25995 24.7282C8.25995 24.3892 8.10275 24.0643 7.83122 23.8524C7.5454 23.5982 6.87373 23.3439 5.80192 23.1179C4.07272 22.7365 2.82941 22.228 2.10058 21.5782C1.37174 20.9708 0.957308 20.0809 0.98589 19.1345C0.98589 18.4847 1.18596 17.8349 1.55753 17.2981C1.98625 16.6907 2.57218 16.2104 3.27243 15.9421C4.02985 15.6172 5.08737 15.4477 6.41643 15.4477C8.04559 15.4477 9.28889 15.7443 10.1463 16.3517C11.0038 16.9591 11.504 17.9055 11.6612 19.2192L7.94555 19.4311C7.84551 18.8661 7.64544 18.4564 7.31675 18.188C7.00235 17.9196 6.55933 17.7925 6.00199 17.8066C5.54468 17.8066 5.2017 17.9055 4.97305 18.1033C4.74439 18.2728 4.61577 18.527 4.63006 18.8096C4.63006 19.0214 4.74439 19.2192 4.91588 19.3463C5.10166 19.5158 5.54468 19.6712 6.24494 19.8125C7.97413 20.1798 9.20315 20.547 9.96056 20.9284C10.718 21.3098 11.261 21.776 11.5897 22.3269C11.9327 22.8919 12.1042 23.5417 12.1042 24.1914C12.1042 24.9825 11.8613 25.7594 11.4182 26.4233C10.9466 27.1155 10.2893 27.6522 9.51755 27.9771C8.70297 28.3303 7.67402 28.5139 6.44501 28.5139C4.27279 28.5139 2.77225 28.1043 1.92909 27.2708C1.08593 26.4233 0.614327 25.378 0.5 24.1067Z"></path>
        <path d="M19.5069 23.1178L22.9653 24.149C22.7795 25.0107 22.3937 25.83 21.8649 26.5504C21.379 27.186 20.7359 27.6804 20.0071 28.0053C19.264 28.3302 18.3208 28.4997 17.1775 28.4997C15.7913 28.4997 14.648 28.302 13.7763 27.9064C12.8902 27.5109 12.1328 26.8046 11.4897 25.8017C10.8466 24.7988 10.5322 23.5134 10.5322 21.9454C10.5322 19.8548 11.0896 18.2445 12.2185 17.1286C13.3475 16.0126 14.9338 15.4476 16.9917 15.4476C18.6066 15.4476 19.8642 15.7725 20.7931 16.4081C21.7077 17.0579 22.3937 18.0467 22.851 19.3745L19.364 20.1373C19.2782 19.8407 19.1496 19.544 18.9781 19.2898C18.7638 18.9931 18.4922 18.7671 18.1636 18.5976C17.8349 18.4281 17.4633 18.3575 17.0917 18.3575C16.1914 18.3575 15.5055 18.7106 15.0339 19.431C14.6766 19.9537 14.4908 20.7871 14.4908 21.9172C14.4908 23.3156 14.7052 24.2761 15.1339 24.7988C15.5626 25.3214 16.1628 25.5757 16.9488 25.5757C17.7062 25.5757 18.2779 25.3638 18.6637 24.9542C19.0496 24.5163 19.3354 23.9089 19.5069 23.1178ZM27.5813 15.6595H31.5255V20.0808H35.8414V15.6595H39.8143V28.2878H35.8414V23.1743H31.5255V28.2878H27.5813V15.6595Z"></path>
        <path d="M39.2712 21.9738C39.2712 19.9114 39.8571 18.3011 41.0147 17.1569C42.1722 16.0127 43.8014 15.4336 45.8736 15.4336C48.0029 15.4336 49.6321 15.9986 50.7896 17.1287C51.9472 18.2587 52.5188 19.8408 52.5188 21.8749C52.5188 23.3581 52.2616 24.5588 51.7614 25.5052C51.2755 26.4375 50.5181 27.2003 49.5892 27.7088C48.6317 28.2314 47.4456 28.4998 46.0308 28.4998C44.5874 28.4998 43.4013 28.2738 42.4581 27.8218C41.4863 27.3415 40.686 26.5929 40.1572 25.6747C39.5713 24.6859 39.2712 23.457 39.2712 21.9738ZM43.2155 21.9879C43.2155 23.2592 43.4584 24.1774 43.93 24.7424C44.4016 25.2933 45.059 25.5758 45.8879 25.5758C46.731 25.5758 47.3884 25.3074 47.86 24.7565C48.3316 24.2056 48.5603 23.231 48.5603 21.8184C48.5603 20.6318 48.3173 19.756 47.8314 19.2193C47.3455 18.6684 46.6882 18.4 45.8593 18.4C45.1305 18.3717 44.4302 18.6825 43.9443 19.2334C43.4584 19.7843 43.2155 20.7025 43.2155 21.9879ZM56.5632 21.9738C56.5632 19.9114 57.1491 18.3011 58.3067 17.1569C59.4642 16.0127 61.0934 15.4336 63.1656 15.4336C65.2949 15.4336 66.9383 15.9986 68.0816 17.1287C69.2249 18.2587 69.8108 19.8408 69.8108 21.8749C69.8108 23.3581 69.5536 24.5588 69.0534 25.5052C68.5675 26.4375 67.8101 27.2003 66.8812 27.7088C65.9237 28.2314 64.7376 28.4998 63.3228 28.4998C61.8794 28.4998 60.6932 28.2738 59.75 27.8218C58.7782 27.3415 57.978 26.5929 57.4492 25.6747C56.8633 24.6859 56.5632 23.457 56.5632 21.9738ZM60.5074 21.9879C60.5074 23.2592 60.7504 24.1774 61.222 24.7424C61.6936 25.2933 62.351 25.5758 63.1798 25.5758C64.023 25.5758 64.6804 25.3074 65.152 24.7565C65.6236 24.2056 65.8522 23.231 65.8522 21.8184C65.8522 20.6318 65.6093 19.756 65.1234 19.2193C64.6375 18.6684 63.9801 18.4 63.1513 18.4C62.4224 18.3717 61.7079 18.6825 61.2363 19.2334C60.7504 19.7843 60.5074 20.7025 60.5074 21.9879Z"></path>
        <path d="M73.3407 15.6594V25.1802H79.5V28.2878H69.3821V15.6594H73.3407Z"></path>
        <path d="M56.7449 4.03879C53.0602 6.78342 52.187 11.1981 54.2055 13.8456C56.2239 16.4931 60.7579 16.8802 64.4426 14.1355C68.1273 11.3909 69.0004 6.97625 66.982 4.32874C64.9635 1.68124 60.4296 1.29416 56.7449 4.03879ZM52.6015 15.0403C49.699 11.2331 51.2749 5.6195 55.5323 2.4483C59.7897 -0.722899 65.6834 -0.673156 68.5859 3.13402C71.4885 6.94119 69.9125 12.5548 65.6552 15.726C61.3978 18.8972 55.5041 18.8475 52.6015 15.0403Z"></path>
        <path d="M56.5774 8.15874L58.0065 7.16995L59.7643 9.64194C60.0644 10.0375 60.2931 10.4612 60.4646 10.9274C60.5646 11.2805 60.536 11.6619 60.3931 12.0009C60.2073 12.4247 59.9072 12.7778 59.5071 13.0321C59.0355 13.357 58.6353 13.5406 58.2924 13.5971C57.9637 13.6536 57.6207 13.5971 57.3063 13.4559C56.9633 13.2864 56.6632 13.0462 56.4345 12.7355L57.6636 11.6054C57.7636 11.7608 57.8922 11.902 58.0351 12.015C58.1352 12.0857 58.2495 12.1281 58.3781 12.1281C58.4781 12.1281 58.5782 12.0857 58.6496 12.0292C58.7925 11.9444 58.8926 11.7749 58.8783 11.6054C58.8354 11.3653 58.7354 11.1251 58.5782 10.9415L56.5774 8.15874ZM60.8647 9.72669L62.1652 8.70964C62.3081 8.87915 62.4939 9.00628 62.6939 9.07691C62.9798 9.16166 63.2799 9.10516 63.5228 8.92153C63.6943 8.80852 63.8372 8.65314 63.8944 8.45538C63.9801 8.20112 63.8372 7.91861 63.58 7.83385C63.5371 7.81973 63.4942 7.8056 63.4514 7.8056C63.2799 7.79148 62.9798 7.8621 62.5367 8.04574C61.8079 8.34238 61.2363 8.45538 60.8075 8.413C60.3931 8.37063 60.0073 8.15874 59.7786 7.8056C59.6071 7.56546 59.5214 7.28295 59.5071 7.00044C59.5071 6.67555 59.5928 6.35066 59.7786 6.08227C60.0501 5.70088 60.3788 5.37599 60.779 5.12172C61.3792 4.71208 61.9079 4.51432 62.3652 4.51432C62.8226 4.51432 63.2513 4.7262 63.6514 5.1641L62.3652 6.16702C62.108 5.84213 61.6221 5.7715 61.2934 6.02577L61.2506 6.06814C61.1077 6.1529 61.0076 6.28003 60.9505 6.43541C60.9076 6.54842 60.9362 6.67555 61.0076 6.77443C61.0648 6.84506 61.1505 6.90156 61.2506 6.90156C61.3649 6.91568 61.565 6.85918 61.8508 6.73205C62.5653 6.43541 63.1084 6.2659 63.4799 6.2094C63.7943 6.1529 64.123 6.18115 64.4231 6.30828C64.6947 6.42129 64.9233 6.61904 65.0805 6.85918C65.2806 7.14169 65.3949 7.48071 65.4092 7.83385C65.4235 8.20112 65.3235 8.55426 65.1234 8.86503C64.8662 9.24642 64.5375 9.57131 64.1516 9.82557C63.3656 10.3623 62.7225 10.5884 62.208 10.5036C61.6507 10.4188 61.1934 10.1363 60.8647 9.72669Z"></path>
    </symbol>
  </svg>
